<svg width="100" height="100" viewBox="0 0 100 100" fill="none" xmlns="http://www.w3.org/2000/svg">
<path d="M47.1807 32.9656C47.8901 33.8281 48.3867 34.5229 48.6705 35.05C48.9542 35.5771 49.0961 36.0802 49.0961 36.5594C49.0961 37.1344 48.7178 37.8052 47.961 38.5719C47.2516 39.3385 46.5422 39.7219 45.8328 39.7219C44.8869 39.7219 44.1301 39.5781 43.5626 39.2906C42.9951 39.0031 42.5221 38.5479 42.1438 37.925C41.387 36.775 40.4648 35.7927 39.377 34.9781C38.2892 34.1156 36.5866 33.6844 34.2691 33.6844C32.2827 33.6844 30.0126 34.1396 27.4587 35.05C24.952 35.9604 23.1548 37.0865 22.067 38.4281C21.1211 39.626 20.2935 41.4469 19.584 43.8906C18.9219 46.3344 18.5908 48.7062 18.5908 51.0062C18.5908 53.7854 19.182 56.349 20.3644 58.6969C21.5941 60.9969 23.344 62.8417 25.6142 64.2313C27.9316 65.6208 30.6984 66.3156 33.9144 66.3156C35.6643 66.3156 37.4615 65.9802 39.3061 65.3094C41.1979 64.5906 42.8295 63.4406 44.2011 61.8594H44.1301C44.9814 60.949 46.0456 60.4937 47.3226 60.4937C48.0793 60.4937 48.7887 60.8292 49.4508 61.5C50.1603 62.1708 50.515 62.8417 50.515 63.5125C50.515 64.2312 50.3967 64.8781 50.1603 65.4531C49.9711 65.9802 49.5927 66.5792 49.0252 67.25C47.0861 69.4542 44.7923 70.9635 42.1438 71.7781C39.4952 72.5927 36.3265 73 32.6375 73C29.3741 73 26.0635 72.2094 22.7055 70.6281C19.3949 69.0469 16.8409 67.1302 15.0437 64.8781C14.0978 63.4885 13.1756 61.5 12.277 58.9125C11.4257 56.2771 11 54.1448 11 52.5156C11 48.3469 11.6148 44.3938 12.8445 40.6562C14.1215 36.8708 16.0133 33.8521 18.5199 31.6C20.1752 30.0667 22.5636 28.9167 25.6851 28.15C28.8066 27.3833 31.6679 27 34.2691 27C37.4379 27 39.9209 27.4552 41.7181 28.3656C43.5626 29.2281 45.3835 30.7615 47.1807 32.9656Z" fill="#8D35C7"/>
<path d="M90 60.4937C90 62.7458 89.527 64.5667 88.5811 65.9562C87.6352 67.3458 86.0036 68.7115 83.6861 70.0531C82.1254 71.0115 80.3282 71.7542 78.2945 72.2813C76.2608 72.7604 74.2035 73 72.1225 73C70.8455 73 69.3557 72.7604 67.6531 72.2813C65.9978 71.7542 64.6499 71.251 63.6094 70.7719L62.4034 69.6938C60.2751 67.9208 58.7853 66.5073 57.934 65.4531C57.13 64.351 56.728 63.0094 56.728 61.4281C56.728 60.1823 57.0117 59.2479 57.5793 58.625C58.1468 58.0021 59.0691 57.6906 60.346 57.6906C61.0082 57.6906 61.623 57.9063 62.1905 58.3375C62.7581 58.7688 63.2547 59.3677 63.6803 60.1344C64.8627 62.2427 66.2579 63.8 67.8659 64.8063C69.5213 65.7646 71.4604 66.2438 73.6832 66.2438C75.7642 66.2438 77.8688 65.5969 79.9971 64.3031C81.747 63.201 82.622 62.1229 82.622 61.0688C82.622 59.2 81.7943 57.6427 80.139 56.3969C78.531 55.151 76.2135 54.025 73.1866 53.0187C71.3421 52.3479 68.5754 51.1021 64.8864 49.2813C62.3797 48.0354 60.5116 46.5021 59.2819 44.6812C58.0522 42.8604 57.4374 40.9437 57.4374 38.9312C57.4374 37.1104 58.0522 35.3375 59.2819 33.6125C60.5589 31.8396 62.096 30.5219 63.8932 29.6594C64.8391 29.1802 66.3525 28.6771 68.4335 28.15C70.5145 27.575 72.0752 27.2875 73.1157 27.2875C75.0548 27.2875 76.7338 27.5271 78.1526 28.0062C79.5714 28.4375 80.9667 29.0604 82.3382 29.875C84.4192 31.0729 85.9563 32.151 86.9495 33.1094C87.9427 34.0677 88.4393 35.2656 88.4393 36.7031C88.4393 37.5656 88.1082 38.3323 87.4461 39.0031C86.8312 39.674 85.7434 40.0094 84.1827 40.0094C83.8044 40.0094 83.426 39.8417 83.0476 39.5062C82.6693 39.1708 82.1963 38.6677 81.6288 37.9969C80.8721 36.9906 80.139 36.3198 79.4296 35.9844C79.2404 35.9365 78.46 35.625 77.0885 35.05C75.7642 34.475 74.1089 34.1875 72.1225 34.1875C70.2307 34.1875 68.5517 34.6427 67.0856 35.5531C65.6194 36.4156 64.8864 37.6854 64.8864 39.3625C64.8864 41.0396 66.3762 42.4052 69.3557 43.4594C72.5245 44.7052 75.1494 45.7833 77.2304 46.6937C79.3586 47.6042 81.416 48.6823 83.4023 49.9281C85.6725 51.3177 87.3278 52.7792 88.3683 54.3125C89.4561 55.8458 90 57.9062 90 60.4937Z" fill="#8D35C7"/>
</svg>
