<svg width="100" height="100" viewBox="0 0 100 100" fill="none" xmlns="http://www.w3.org/2000/svg">
<path d="M18.363 63.2653C18.363 65.5761 18.6886 67.259 19.3397 68.314C19.9909 69.3187 21.0177 69.821 22.4202 69.821C25.9264 69.821 28.3056 68.3893 29.5578 65.5259C30.8601 62.6625 31.5112 58.7441 31.5112 53.7708C31.5112 51.3595 31.3609 47.9937 31.0604 43.6735C30.7599 39.5542 30.6096 36.4898 30.6096 34.4804C25.2502 34.4804 22.5704 33.4254 22.5704 31.3155C22.5704 30.0597 22.7708 29.2308 23.1715 28.8289C23.6223 28.427 24.2985 28.2261 25.2001 28.2261C25.751 28.2261 26.3521 28.2763 27.0033 28.3768C27.6544 28.427 28.1302 28.4521 28.4308 28.4521C29.4325 28.6028 30.3842 28.6782 31.2858 28.6782C32.9387 28.6782 34.4664 28.6028 35.8689 28.4521C37.6721 28.3516 39.0245 28.3014 39.9261 28.3014C41.7293 28.3014 42.9815 28.4772 43.6827 28.8289C44.434 29.1805 44.8097 29.8587 44.8097 30.8634C44.8097 31.9184 44.5342 32.6719 43.9832 33.124C43.4824 33.5259 42.731 33.8273 41.7293 34.0283L38.2732 34.405C38.2231 37.7206 38.4234 41.6892 38.8742 46.3108C38.9243 47.0141 39.0245 48.3454 39.1747 50.3046C39.325 52.2135 39.4001 53.9717 39.4001 55.5793C39.4001 62.1099 38.0227 67.1586 35.2678 70.7253C32.513 74.2418 28.4057 76 22.9461 76C19.5401 76 16.685 75.0204 14.381 73.0612C12.127 71.0518 11 68.0628 11 64.0942C11 62.989 11.4007 62.1099 12.2021 61.4568C13.0035 60.7535 14.0804 60.4019 15.4328 60.4019C16.3845 60.4019 17.1108 60.7284 17.6117 61.3815C18.1126 62.0345 18.363 62.6625 18.363 63.2653Z" fill="#FFEA00"/>
<path d="M86 62.8132C86 65.1743 85.4991 67.0832 84.4974 68.54C83.4956 69.9969 81.7675 71.4286 79.3132 72.8352C77.6603 73.8399 75.7569 74.6185 73.6031 75.1711C71.4493 75.6735 69.2705 75.9246 67.0666 75.9246C65.7142 75.9246 64.1364 75.6735 62.3332 75.1711C60.5801 74.6185 59.1526 74.0911 58.0506 73.5887L56.7734 72.4584C54.5194 70.5997 52.9416 69.1177 52.04 68.0126C51.1885 66.8571 50.7628 65.4505 50.7628 63.7928C50.7628 62.4867 51.0633 61.5071 51.6644 60.854C52.2654 60.2009 53.2422 59.8744 54.5945 59.8744C55.2958 59.8744 55.9469 60.1005 56.548 60.5526C57.1491 61.0047 57.675 61.6327 58.1258 62.4364C59.378 64.6468 60.8556 66.2794 62.5586 67.3344C64.3117 68.3391 66.3653 68.8414 68.7195 68.8414C70.9234 68.8414 73.1523 68.1633 75.4063 66.8069C77.2596 65.6515 78.1862 64.5212 78.1862 63.416C78.1862 61.4568 77.3097 59.8242 75.5566 58.5181C73.8536 57.2119 71.3992 56.0314 68.1936 54.9765C66.2401 54.2732 63.3099 52.967 59.403 51.0581C56.7484 49.752 54.7699 48.1444 53.4676 46.2355C52.1653 44.3265 51.5141 42.3171 51.5141 40.2072C51.5141 38.2983 52.1653 36.4396 53.4676 34.6311C54.8199 32.7724 56.4478 31.3909 58.3512 30.4867C59.3529 29.9843 60.9558 29.4568 63.1597 28.9042C65.3636 28.3014 67.0165 28 68.1184 28C70.1721 28 71.9502 28.2512 73.4528 28.7535C74.9555 29.2057 76.4331 29.8587 77.8857 30.7127C80.0896 31.9686 81.7174 33.0989 82.7693 34.1036C83.8211 35.1083 84.3471 36.3642 84.3471 37.8713C84.3471 38.7755 83.9965 39.5793 83.2952 40.2826C82.6441 40.9859 81.492 41.3375 79.8391 41.3375C79.4384 41.3375 79.0377 41.1617 78.637 40.81C78.2363 40.4584 77.7354 39.9309 77.1343 39.2276C76.3329 38.1727 75.5566 37.4694 74.8052 37.1177C74.6049 37.0675 73.7784 36.741 72.3259 36.1381C70.9234 35.5353 69.1703 35.2339 67.0666 35.2339C65.063 35.2339 63.2849 35.7111 61.7322 36.6656C60.1794 37.5699 59.403 38.9011 59.403 40.6593C59.403 42.4176 60.9808 43.8493 64.1364 44.9545C67.4923 46.2606 70.2722 47.3909 72.4761 48.3454C74.7301 49.2998 76.9089 50.4301 79.0127 51.7363C81.4169 53.1931 83.17 54.7253 84.2719 56.3328C85.424 57.9403 86 60.1005 86 62.8132Z" fill="#FFEA00"/>
</svg>
