<svg width="100" height="100" viewBox="0 0 100 100" fill="none" xmlns="http://www.w3.org/2000/svg">
<path d="M67.8282 20.1673C68.8235 22.158 69.3211 24.8511 69.3211 28.2469L69.2333 31.7597V35.1847C69.2333 38.2877 69.5553 40.8931 70.1993 43.0008C70.7848 45.1085 72.1314 47.3626 74.2391 49.763C73.0096 50.8754 72.1899 52.7782 71.7801 55.4714C71.3703 58.1645 71.1361 61.5017 71.0775 65.483C71.019 69.874 70.8141 73.2697 70.4628 75.6702C70.053 78.1292 69.0869 79.9441 67.5647 81.1151C66.9207 81.642 66.1888 81.9933 65.3692 82.1689C64.5495 82.3446 63.5835 82.4617 62.4711 82.5202C61.1831 82.6373 60.2756 82.813 59.7486 83.0471C59.1632 83.3399 58.8704 83.9254 58.8704 84.8036C58.8704 86.1502 59.5145 87.1747 60.8025 87.8773C62.032 88.5799 63.5835 88.9311 65.457 88.9311C68.56 88.9311 71.3703 87.7895 73.8878 85.5061C76.4053 83.2228 77.9569 80.5296 78.5423 77.4266C78.7765 76.3142 78.8936 74.9676 78.8936 73.3868C78.8936 72.4501 78.8351 70.9864 78.718 68.9958L78.6301 64.6047C78.6301 60.5064 78.9814 57.7254 79.684 56.2618C80.0353 55.4421 81.0013 54.5639 82.5821 53.6271C83.6945 52.9246 84.4849 52.3391 84.9533 51.8707C85.4216 51.3438 85.6558 50.6412 85.6558 49.763C85.6558 49.0604 85.5095 48.3871 85.2167 47.7431C84.8654 47.2162 84.4263 46.7771 83.8994 46.4258C83.3139 46.0745 82.7285 45.7525 82.143 45.4598C80.972 44.8158 80.1817 44.2888 79.7718 43.879C78.718 42.9422 78.0739 41.6835 77.8398 40.1027C77.547 38.5219 77.4007 36.2386 77.4007 33.2527V30.5302C77.4007 25.7879 76.9908 21.8945 76.1712 18.85C75.3515 15.8056 73.5658 13.7271 70.8141 12.6147C69.8188 12.2049 68.5015 12 66.8621 12C64.9886 12 63.32 12.2635 61.8563 12.7904C60.3927 13.2588 59.6608 13.9906 59.6608 14.9859C59.6608 16.8009 60.0414 17.9426 60.8025 18.4109C61.5051 18.8208 62.2955 18.9964 63.1737 18.9379C64.0519 18.8793 64.6666 18.85 65.0179 18.85C66.3645 18.85 67.3012 19.2891 67.8282 20.1673Z" fill="#93B477"/>
<path d="M33.1718 20.1673C32.1765 22.158 31.6789 24.8511 31.6789 28.2469L31.7667 31.7597V35.1847C31.7667 38.2877 31.4447 40.8931 30.8007 43.0008C30.2152 45.1085 28.8686 47.3626 26.7609 49.763C27.9904 50.8754 28.8101 52.7782 29.2199 55.4714C29.6297 58.1645 29.8639 61.5017 29.9225 65.483C29.981 69.874 30.1859 73.2697 30.5372 75.6702C30.947 78.1292 31.9131 79.9441 33.4353 81.1151C34.0793 81.642 34.8112 81.9933 35.6308 82.1689C36.4505 82.3446 37.4165 82.4617 38.5289 82.5202C39.8169 82.6373 40.7244 82.813 41.2514 83.0471C41.8368 83.3399 42.1296 83.9254 42.1296 84.8036C42.1296 86.1502 41.4855 87.1747 40.1975 87.8773C38.968 88.5799 37.4165 88.9311 35.543 88.9311C32.44 88.9311 29.6297 87.7895 27.1122 85.5061C24.5947 83.2228 23.0431 80.5296 22.4577 77.4266C22.2235 76.3142 22.1064 74.9676 22.1064 73.3868C22.1064 72.4501 22.1649 70.9864 22.282 68.9958L22.3699 64.6047C22.3699 60.5064 22.0186 57.7254 21.316 56.2618C20.9647 55.4421 19.9987 54.5639 18.4179 53.6271C17.3055 52.9246 16.5151 52.3391 16.0467 51.8707C15.5784 51.3438 15.3442 50.6412 15.3442 49.763C15.3442 49.0604 15.4905 48.3871 15.7833 47.7431C16.1346 47.2162 16.5737 46.7771 17.1006 46.4258C17.6861 46.0745 18.2715 45.7525 18.857 45.4598C20.028 44.8158 20.8183 44.2888 21.2282 43.879C22.282 42.9422 22.9261 41.6835 23.1602 40.1027C23.453 38.5219 23.5993 36.2386 23.5993 33.2527V30.5302C23.5993 25.7879 24.0092 21.8945 24.8288 18.85C25.6485 15.8056 27.4342 13.7271 30.1859 12.6147C31.1812 12.2049 32.4985 12 34.1379 12C36.0114 12 37.68 12.2635 39.1437 12.7904C40.6073 13.2588 41.3392 13.9906 41.3392 14.9859C41.3392 16.8009 40.9586 17.9426 40.1975 18.4109C39.4949 18.8208 38.7045 18.9964 37.8263 18.9379C36.9481 18.8793 36.3334 18.85 35.9821 18.85C34.6355 18.85 33.6988 19.2891 33.1718 20.1673Z" fill="#93B477"/>
</svg>
