<svg width="100" height="100" viewBox="0 0 100 100" fill="none" xmlns="http://www.w3.org/2000/svg">
<path d="M6 28.1698C6 25.826 7.7066 24.6541 11.1198 24.6541C12.5826 24.6541 15.3728 24.7086 19.4903 24.8176C24.0412 25.0356 27.4815 25.1447 29.8112 25.1447C31.7074 25.1447 34.01 25.0356 36.7189 24.8176C38.5609 24.7086 39.7258 24.6541 40.2134 24.6541C43.1931 24.7631 45.7124 25.3082 47.7712 26.2893C48.3671 26.5618 48.8547 26.8889 49.234 27.2704C49.6132 27.652 49.8028 28.2788 49.8028 29.1509C49.8028 30.3501 49.4236 31.3857 48.6651 32.2579C47.9066 33.0755 46.9856 33.4843 45.902 33.4843C44.7101 33.4843 42.9764 33.3208 40.701 32.9937C38.6964 32.6122 36.9356 32.4214 35.4186 32.4214C33.9558 32.4214 32.8452 32.4486 32.0867 32.5031C31.9241 34.3019 31.8429 38.608 31.8429 45.4214C31.8429 53.543 32.0867 61.7736 32.5743 70.1132L32.7368 72.4843C32.7368 74.7191 31.4636 75.8365 28.9173 75.8365C26.9127 75.8365 25.5582 75.3732 24.8539 74.4465C24.1496 73.4654 23.7974 71.9937 23.7974 70.0314C23.7974 66.1614 23.6891 61.3375 23.4724 55.5597C23.2557 50.7631 23.1473 47.3564 23.1473 45.3396C23.1473 43.9769 23.3098 39.8071 23.6349 32.8302L14.1267 32.9119C11.0927 32.9119 8.97979 32.6394 7.78787 32.0943C6.59596 31.4948 6 30.1866 6 28.1698Z" fill="#3363FF"/>
<path d="M93 61.7736C93 64.3354 92.4582 66.4067 91.3747 67.9874C90.2911 69.5681 88.422 71.1216 85.7672 72.6478C83.9794 73.7379 81.9206 74.5828 79.591 75.1824C77.2613 75.7275 74.9046 76 72.5207 76C71.0579 76 69.3513 75.7275 67.4009 75.1824C65.5047 74.5828 63.9606 74.0105 62.7687 73.4654L61.3872 72.239C58.9492 70.2222 57.2426 68.6143 56.2674 67.4151C55.3463 66.1614 54.8858 64.6352 54.8858 62.8365C54.8858 61.4193 55.2109 60.3564 55.861 59.6478C56.5112 58.9392 57.5676 58.5849 59.0304 58.5849C59.7889 58.5849 60.4932 58.8302 61.1434 59.3208C61.7935 59.8113 62.3624 60.4927 62.85 61.3648C64.2044 63.7631 65.8027 65.5346 67.6447 66.6792C69.541 67.7694 71.7623 68.3145 74.3086 68.3145C76.6924 68.3145 79.1034 67.5786 81.5414 66.1069C83.546 64.8532 84.5482 63.6268 84.5482 62.4277C84.5482 60.3019 83.6001 58.5304 81.7039 57.1132C79.8619 55.696 77.2071 54.4151 73.7397 53.2704C71.6268 52.5073 68.4574 51.0901 64.2315 49.0189C61.3601 47.6017 59.2201 45.8574 57.8114 43.7862C56.4028 41.7149 55.6985 39.5346 55.6985 37.2453C55.6985 35.174 56.4028 33.1572 57.8114 31.195C59.2742 29.1782 61.035 27.6792 63.0938 26.6981C64.1773 26.153 65.911 25.5807 68.2949 24.9811C70.6787 24.327 72.4666 24 73.6585 24C75.8798 24 77.8031 24.2725 79.4284 24.8176C81.0538 25.3082 82.652 26.0168 84.2232 26.9434C86.607 28.3061 88.3678 29.5325 89.5055 30.6226C90.6433 31.7128 91.2121 33.0755 91.2121 34.7107C91.2121 35.6918 90.8329 36.5639 90.0744 37.327C89.3701 38.0901 88.124 38.4717 86.3361 38.4717C85.9027 38.4717 85.4693 38.2809 85.0358 37.8994C84.6024 37.5178 84.0606 36.9455 83.4105 36.1824C82.5437 35.0377 81.7039 34.2746 80.8912 33.8931C80.6745 33.8386 79.7806 33.4843 78.2094 32.8302C76.6924 32.1761 74.7962 31.8491 72.5207 31.8491C70.3536 31.8491 68.4303 32.3669 66.7508 33.4025C65.0713 34.3836 64.2315 35.8281 64.2315 37.7358C64.2315 39.6436 65.9381 41.1971 69.3513 42.3962C72.9813 43.8134 75.9881 45.0398 78.372 46.0755C80.81 47.1111 83.1667 48.3375 85.4422 49.7547C88.0427 51.3354 89.9389 52.9979 91.1309 54.7421C92.377 56.4864 93 58.8302 93 61.7736Z" fill="#3363FF"/>
</svg>
