<svg width="100" height="100" viewBox="0 0 100 100" fill="none" xmlns="http://www.w3.org/2000/svg">
<path d="M52.6626 39.5509C51.0955 36.8365 52.0255 33.3657 54.7398 31.7986L64.5694 26.1234C67.2838 24.5563 70.7546 25.4863 72.3217 28.2007L91.2387 60.9659C92.8059 63.6803 91.8759 67.1511 89.1615 68.7182L79.3319 74.3933C76.6176 75.9605 73.1467 75.0305 71.5796 72.3161L52.6626 39.5509Z" fill="#B055C7"/>
<path d="M9.15348 39.5509C7.58634 36.8365 8.51635 33.3657 11.2307 31.7986L21.0603 26.1234C23.7746 24.5563 27.2455 25.4863 28.8126 28.2007L47.7296 60.9659C49.2968 63.6803 48.3667 67.1511 45.6524 68.7182L35.8228 74.3933C33.1085 75.9605 29.6376 75.0305 28.0705 72.3161L9.15348 39.5509Z" fill="#B055C7"/>
</svg>
