<svg width="100" height="100" viewBox="0 0 100 100" fill="none" xmlns="http://www.w3.org/2000/svg">
<path d="M83.6417 19.4937C86.0488 19.4937 88.001 21.445 88.0011 23.8521V65.9849C88.001 68.392 86.0488 70.3433 83.6417 70.3433H29.4562C28.3338 70.3434 27.2545 70.7765 26.4435 71.5523L18.3712 79.274C15.5989 81.9258 11.0004 79.9609 11.0001 76.1246V23.8521C11.0002 21.445 12.9514 19.4937 15.3585 19.4937H83.6417ZM27.7081 39.8336C24.0974 39.8336 21.17 42.7609 21.17 46.3716C21.1702 49.9822 24.0975 52.9088 27.7081 52.9088C31.3185 52.9084 34.2451 49.982 34.2452 46.3716C34.2452 42.7611 31.3186 39.8339 27.7081 39.8336ZM49.5001 39.8336C45.8896 39.8338 42.963 42.7611 42.963 46.3716C42.9632 49.9821 45.8897 52.9085 49.5001 52.9088C53.1106 52.9085 56.0381 49.9821 56.0382 46.3716C56.0382 42.761 53.1107 39.8338 49.5001 39.8336ZM71.2931 39.8336C67.6824 39.8336 64.755 42.761 64.755 46.3716C64.7552 49.9822 67.6825 52.9087 71.2931 52.9088C74.9036 52.9085 77.831 49.9821 77.8312 46.3716C77.8312 42.761 74.9036 39.8338 71.2931 39.8336Z" fill="#0AA0D7"/>
</svg>
