<svg width="100" height="100" viewBox="0 0 100 100" fill="none" xmlns="http://www.w3.org/2000/svg">
<path d="M54.0001 44.8473C53.6118 45.24 53.6154 45.8732 54.0081 46.2615C54.4008 46.6499 55.0339 46.6463 55.4222 46.2536L54.0001 44.8473ZM81.8813 18.074H82.8813V17.074H81.8813V18.074ZM55.4222 53.8944C55.0339 53.5017 54.4008 53.4981 54.0081 53.8865C53.6154 54.2748 53.6118 54.908 54.0001 55.3007L55.4222 53.8944ZM81.8813 82.074V83.074H82.8813V82.074H81.8813ZM44.3404 46.2536C44.7287 46.6463 45.3619 46.6499 45.7546 46.2615C46.1473 45.8732 46.1508 45.24 45.7625 44.8473L44.3404 46.2536ZM17.8813 18.074V17.074H16.8813V18.074H17.8813ZM45.7625 55.3007C46.1508 54.908 46.1473 54.2748 45.7546 53.8865C45.3619 53.4981 44.7287 53.5017 44.3404 53.8944L45.7625 55.3007ZM17.8813 82.074H16.8813V83.074H17.8813V82.074ZM54.7112 45.5505L55.4222 46.2536L82.5924 18.7771L81.8813 18.074L81.1703 17.3709L54.0001 44.8473L54.7112 45.5505ZM81.8813 18.074H80.8813V35.9044H81.8813H82.8813V18.074H81.8813ZM81.8813 18.074V17.074H63.0978V18.074V19.074H81.8813V18.074ZM54.7112 54.5975L54.0001 55.3007L81.1703 82.7771L81.8813 82.074L82.5924 81.3709L55.4222 53.8944L54.7112 54.5975ZM81.8813 82.074H82.8813V64.2436H81.8813H80.8813V82.074H81.8813ZM81.8813 82.074V81.074H63.0978V82.074V83.074H81.8813V82.074ZM45.0515 45.5505L45.7625 44.8473L18.5924 17.3709L17.8813 18.074L17.1703 18.7771L44.3404 46.2536L45.0515 45.5505ZM17.8813 18.074H16.8813V35.9044H17.8813H18.8813V18.074H17.8813ZM17.8813 18.074V19.074H36.6648V18.074V17.074H17.8813V18.074ZM45.0515 54.5975L44.3404 53.8944L17.1703 81.3709L17.8813 82.074L18.5924 82.7771L45.7625 55.3007L45.0515 54.5975ZM17.8813 82.074H18.8813V64.2436H17.8813H16.8813V82.074H17.8813ZM17.8813 82.074V83.074H36.6648V82.074V81.074H17.8813V82.074Z" fill="#96F084"/>
</svg>
