<svg width="100" height="100" viewBox="0 0 100 100" fill="none" xmlns="http://www.w3.org/2000/svg">
<path d="M8.01367 76.8199L8.01367 28.3033C8.01376 23.9496 11.5428 20.4207 15.8965 20.4205L84.1035 20.4205C88.4572 20.4207 91.9862 23.9496 91.9863 28.3033L91.9863 72.6969C91.9862 77.0506 88.4572 80.5795 84.1035 80.5797L11.7734 80.5797L11.5801 80.5748C9.59331 80.4742 8.01367 78.8317 8.01367 76.8199Z" stroke="#8C8DBD" stroke-width="10.0267"/>
<path d="M8 70.5L32.8383 48.4736C33.8055 47.6158 35.2426 47.5569 36.2768 48.3326V48.3326C36.4252 48.4439 36.5619 48.5701 36.6846 48.7092L50.0206 63.8233C50.8927 64.8117 52.3209 65.0895 53.5 64.5V64.5L67 57.5V57.5C68.2333 56.8833 69.7009 56.9865 70.8405 57.7629C77.8871 62.5639 90 70.5 90 70.5" stroke="#8C8DBD" stroke-width="6"/>
<circle cx="65.5" cy="39.5" r="7.5" stroke="#8C8DBD" stroke-width="4"/>
</svg>
