<svg width="100" height="100" viewBox="0 0 100 100" fill="none" xmlns="http://www.w3.org/2000/svg">
<path d="M15 29.9699C15 26.0837 19.9823 24.4801 22.2491 27.6368L34.5661 44.7896C36.3753 47.309 40.2392 46.8999 41.4808 44.0576L54.0837 15.2054C55.3022 12.416 59.0659 11.9556 60.9208 14.369L85.1715 45.922C85.7087 46.621 86 47.478 86 48.3596V76.1397C86 80.0538 80.9589 81.6385 78.7194 78.4283L60.984 53.0056C59.1738 50.4108 55.2101 50.8452 54.0049 53.7705L41.4595 84.2212C40.2536 87.1482 36.2867 87.5809 34.4781 84.9826L15.717 58.0301C15.2502 57.3595 15 56.562 15 55.7449V29.9699Z" fill="url(#paint0_linear_28_96)"/>
<defs>
<linearGradient id="paint0_linear_28_96" x1="50.5" y1="9" x2="50.5" y2="91" gradientUnits="userSpaceOnUse">
<stop stop-color="#9F50FF"/>
<stop offset="0.490385" stop-color="#CE50AB"/>
<stop offset="1" stop-color="#FF5154"/>
</linearGradient>
</defs>
</svg>
