<svg width="100" height="100" viewBox="0 0 100 100" fill="none" xmlns="http://www.w3.org/2000/svg">
<path d="M46.698 70.9152C46.102 70.1357 45.5976 69.2875 45.185 68.3705C44.7723 67.4077 44.3368 66.2614 43.8783 64.9318C43.7866 64.7026 43.5115 64.0148 43.053 62.8686C42.6403 61.7223 42.1589 60.7366 41.6087 59.9113C38.7202 60.3239 36.3589 60.5303 34.525 60.5303C33.5163 60.5303 32.393 60.5073 31.155 60.4615C29.9629 60.3698 29.0689 60.3239 28.4728 60.3239C26.1803 60.1405 24.3464 60.0488 22.9709 60.0488C22.4207 60.7824 21.9393 61.5619 21.5266 62.3872C21.1598 63.2124 20.6784 64.4504 20.0824 66.101C19.2571 68.4851 18.5464 70.1816 17.9503 71.1903C17.5377 71.878 16.7353 72.2219 15.5432 72.2219C14.5346 72.2219 13.5946 72.0156 12.7235 71.6029C11.8982 71.1444 11.4856 70.5254 11.4856 69.746C11.8524 68.0037 12.4255 66.1697 13.2049 64.2441C14.0302 62.2725 15.1994 59.6591 16.7124 56.4038L19.4634 49.6639C20.9764 45.8125 22.3519 42.5114 23.5898 39.7604C24.8736 37.0094 26.5471 33.7541 28.6104 29.9945C28.8855 29.4443 29.344 28.9858 29.9859 28.619C30.6277 28.2063 31.3384 28 32.1179 28C32.989 28 33.608 28.0688 33.9748 28.2063C34.3874 28.298 34.7084 28.4814 34.9376 28.7565C35.1669 28.9858 35.5107 29.4901 35.9692 30.2696C37.5281 32.6996 38.8577 35.1984 39.9581 37.766C41.1044 40.3335 42.5486 43.8869 44.2909 48.426L45.7352 52.071C47.019 55.3722 48.1193 58.1461 49.0363 60.3927C49.9992 62.5935 51.0537 64.6109 52.2 66.4448C52.9335 67.6369 53.3003 68.4622 53.3003 68.9207C53.3003 70.0211 52.9565 70.8693 52.2687 71.4654C51.6268 72.0156 50.7786 72.2907 49.7241 72.2907C48.3944 72.2907 47.3858 71.8322 46.698 70.9152ZM39.6143 54.2718C38.8807 52.7129 37.8261 50.0078 36.4506 46.1564C35.0293 42.03 33.608 38.7517 32.1866 36.3217C31.3155 38.5225 30.0317 41.3651 28.3353 44.8497C27.189 47.0046 25.8823 50.1224 24.4151 54.203C27.3495 54.5698 30.5131 54.7532 33.906 54.7532C36.336 54.7532 38.2388 54.5927 39.6143 54.2718Z" fill="#E5D1BC"/>
<path d="M89.3139 68.6456C89.3139 69.6543 88.7637 70.5025 87.6633 71.1903C86.6088 71.878 85.623 72.2219 84.706 72.2219C82.9637 72.2219 81.5653 72.0156 80.5108 71.6029C79.5021 71.1444 78.5622 70.3191 77.691 69.127C76.499 70.1816 74.8713 70.9839 72.8081 71.5341C70.7448 72.0385 68.8421 72.2907 67.0998 72.2907C64.2571 72.2907 61.9188 71.5341 60.0848 70.0211C58.2508 68.4622 57.3338 66.1927 57.3338 63.2124C57.3338 61.9287 57.6777 60.7595 58.3655 59.705C59.0532 58.6046 59.9931 57.6417 61.1852 56.8164C62.5148 55.9453 64.0279 55.2805 65.7243 54.822C67.4207 54.3176 69.186 54.0655 71.0199 54.0655C71.9828 54.0655 73.129 54.2489 74.4586 54.6157C75.7883 54.9825 76.8199 55.3722 77.5535 55.7848V54.6844C77.5535 52.2086 76.9574 50.5121 75.7654 49.5951C74.5733 48.6323 72.6476 48.1509 69.9883 48.1509C69.2089 48.1509 68.4294 48.3113 67.65 48.6323C66.9164 48.9532 66.0682 49.3888 65.1053 49.939C63.8216 50.6267 62.6065 50.9706 61.4603 50.9706C61.0477 50.9706 60.6579 50.6955 60.2911 50.1453C59.9243 49.5493 59.7409 49.022 59.7409 48.5635C59.7409 47.2339 60.3599 46.0876 61.5979 45.1248C62.8816 44.162 64.3947 43.4513 66.137 42.9928C67.8792 42.4885 69.4381 42.2363 70.8136 42.2363C72.1891 42.2363 73.7709 42.5114 75.559 43.0616C77.3472 43.5659 78.8144 44.2766 79.9606 45.1936C81.3361 46.3857 82.3906 47.7841 83.1242 49.3888C83.9037 50.9477 84.2934 52.6671 84.2934 54.5469C84.2934 55.1429 84.2475 56.037 84.1558 57.2291C84.0641 58.5129 84.0183 59.6133 84.0183 60.5303C84.0183 60.9429 83.9724 61.5619 83.8807 62.3872C83.789 63.3958 83.7432 64.1982 83.7432 64.7943C83.7432 65.3445 83.9495 65.8259 84.3621 66.2385C84.7748 66.6053 85.2562 66.7887 85.8064 66.7887L87.7321 66.7199C88.2364 66.7199 88.6262 66.9033 88.9013 67.2701C89.1764 67.6369 89.3139 68.0954 89.3139 68.6456ZM67.1686 66.8575C69.1401 66.8575 70.7907 66.6512 72.1203 66.2385C73.45 65.8259 75.0547 65.0694 76.9345 63.969C77.1179 63.1895 77.2325 62.1579 77.2784 60.8741C74.7567 59.682 72.6705 59.086 71.0199 59.086C69.1401 59.086 67.4666 59.4299 65.9994 60.1176C64.5322 60.8053 63.7986 62.0204 63.7986 63.7626C63.7986 64.6338 64.1654 65.3674 64.899 65.9634C65.6326 66.5595 66.3891 66.8575 67.1686 66.8575Z" fill="#E5D1BC"/>
</svg>
