<svg width="100" height="100" viewBox="0 0 100 100" fill="none" xmlns="http://www.w3.org/2000/svg">
<g clip-path="url(#clip0_33_3)">
<path d="M20.2861 16.4286C20.6862 16.4287 21.0585 16.6331 21.2734 16.9706L25.083 22.9579C25.2979 23.2956 25.6709 23.4998 26.0713 23.4999H80.7139C85.0572 23.4999 88.7691 26.1933 90.2773 29.9999H7V79.9999H89.2666C87.4214 82.7561 84.2798 84.5712 80.7139 84.5712H13.8574C8.17687 84.5712 3.57144 79.9665 3.57129 74.286V17.7147C3.57129 17.0046 4.14734 16.4286 4.85742 16.4286H20.2861Z" fill="#D0BF04"/>
<path d="M13.2715 42.9839C14.6424 38.7361 18.5965 35.8572 23.0601 35.8572H89.3612C96.1956 35.8572 101.129 42.3994 99.2506 48.9705L91.2039 77.1134C89.9416 81.5281 85.9061 84.5715 81.3145 84.5715H13.9779C6.99872 84.5715 2.04582 77.7687 4.18928 71.1268L13.2715 42.9839Z" fill="#FFEB57"/>
</g>
<defs>
<clipPath id="clip0_33_3">
<rect width="100" height="100" fill="white"/>
</clipPath>
</defs>
</svg>
